<svg xmlns="http://www.w3.org/2000/svg" width="114" height="118" viewBox="0 0 114 118" fill="none"><path d="M96.9977 59.9452C96.9977 60.1985 96.7951 60.404 96.5453 60.404C96.2954 60.404 96.0928 60.1985 96.0928 59.9452C96.0928 59.6918 96.2954 59.4863 96.5453 59.4863C96.7951 59.4863 96.9977 59.6918 96.9977 59.9452Z" stroke="#1E5546" stroke-width="3" stroke-miterlimit="10" stroke-linecap="round" stroke-linejoin="round"></path><path d="M79.6911 14.95C79.6911 15.2034 79.4885 15.4089 79.2386 15.4089C78.9888 15.4089 78.7861 15.2034 78.7861 14.95C78.7861 14.6967 78.9888 14.4912 79.2386 14.4912C79.4885 14.4912 79.6911 14.6964 79.6911 14.95Z" stroke="#1E5546" stroke-width="3" stroke-miterlimit="10" stroke-linecap="round" stroke-linejoin="round"></path><path d="M108.567 20.8119C108.567 21.0653 108.364 21.2707 108.115 21.2707C107.865 21.2707 107.662 21.0653 107.662 20.8119C107.662 20.5585 107.865 20.353 108.115 20.353C108.364 20.353 108.567 20.5585 108.567 20.8119Z" stroke="#1E5546" stroke-width="3" stroke-miterlimit="10" stroke-linecap="round" stroke-linejoin="round"></path><path d="M92.8857 19.3252V22.2993" stroke="#1E5546" stroke-width="3" stroke-miterlimit="10" stroke-linecap="round" stroke-linejoin="round"></path><path d="M88.21 25.5522H89.6765" stroke="#1E5546" stroke-width="3" stroke-miterlimit="10" stroke-linecap="round" stroke-linejoin="round"></path><path d="M96.0928 25.5522H97.5595" stroke="#1E5546" stroke-width="3" stroke-miterlimit="10" stroke-linecap="round" stroke-linejoin="round"></path><path d="M92.8857 28.8052V31.7796" stroke="#1E5546" stroke-width="3" stroke-miterlimit="10" stroke-linecap="round" stroke-linejoin="round"></path><path d="M107.662 44.1362V47.1104" stroke="#1E5546" stroke-width="3" stroke-miterlimit="10" stroke-linecap="round" stroke-linejoin="round"></path><path d="M102.986 50.3633H104.453" stroke="#1E5546" stroke-width="3" stroke-miterlimit="10" stroke-linecap="round" stroke-linejoin="round"></path><path d="M110.869 50.3633H112.336" stroke="#1E5546" stroke-width="3" stroke-miterlimit="10" stroke-linecap="round" stroke-linejoin="round"></path><path d="M107.662 53.6172V56.5913" stroke="#1E5546" stroke-width="3" stroke-miterlimit="10" stroke-linecap="round" stroke-linejoin="round"></path><path d="M11.675 77.9694C11.31 78.2267 10.8271 78.3762 10.2853 78.4249C8.64065 78.5733 7.05171 77.6779 5.92212 76.2387C4.33043 74.2104 3.15992 70.8904 3.32988 65.8301" stroke="#1E5546" stroke-width="3" stroke-miterlimit="10" stroke-linecap="round" stroke-linejoin="round"></path><path d="M39.4883 84.5073C41.4751 85.6141 43.4619 85.6141 45.4487 84.5073" stroke="#1E5546" stroke-width="3" stroke-miterlimit="10" stroke-linecap="round" stroke-linejoin="round"></path><path d="M35.8262 95.7422C40.255 98.3677 44.6836 98.3677 49.1124 95.7422" stroke="#1E5546" stroke-width="3" stroke-miterlimit="10" stroke-linecap="round" stroke-linejoin="round"></path><path d="M75.7716 58.7446V59.9196C75.7403 61.9203 75.6308 63.8732 75.4583 65.7787C75.4114 66.3662 75.3488 66.9536 75.2705 67.5253" stroke="#1E5546" stroke-width="3" stroke-miterlimit="10" stroke-linecap="round" stroke-linejoin="round"></path><path d="M9.15829 56.0444V57.7592C9.12699 64.3963 9.7846 70.5097 11.1314 76.0829C11.2096 76.4323 11.3035 76.7818 11.3974 77.1309C13.1355 83.9428 15.8757 89.9607 19.5242 95.2165C24.6916 102.632 35.3865 111.063 42.4641 111.063C46.7859 111.063 52.4544 107.919 57.3868 103.791" stroke="#1E5546" stroke-width="3" stroke-miterlimit="10" stroke-linecap="round" stroke-linejoin="round"></path><path d="M55.9381 34.2259C59.0273 49.9655 64.7195 51.5405 73.5785 56.262V56.2793C77.9286 58.5927 80.4629 63.4565 81.8838 67.6591C81.8835 67.6933 81.8988 67.7273 81.9145 67.7615C87.0215 48.7816 79.573 33.6562 70.0942 24.5211C59.4071 14.2211 34.2643 10.1271 17.5906 23.0243C5.23627 32.5806 -1.73374 48.9417 3.33046 67.7615C3.34611 67.7273 3.33046 67.6251 3.33046 67.6251C4.98338 61.1634 6.02786 56.4536 11.6088 54.0617C26.8964 47.5095 45.4486 55.0436 53.1847 40.9704C54.3195 38.9062 55.2272 36.7083 55.8895 34.4171C55.906 34.3473 55.9381 34.2952 55.9381 34.2259Z" stroke="#1E5546" stroke-width="3" stroke-miterlimit="10" stroke-linecap="round" stroke-linejoin="round"></path><path d="M22.9931 19.4355C21.9824 17.8331 21.983 16.6223 21.9824 15.8703C21.9775 8.04738 31.3945 2 42.4863 2C53.5782 2 63.4419 7.94603 62.9856 15.8703C62.9592 16.3299 62.6997 17.5241 62.2741 18.6534" stroke="#1E5546" stroke-width="3" stroke-miterlimit="10" stroke-linecap="round" stroke-linejoin="round"></path><path d="M29.6846 105.577C29.6846 105.577 30.2148 111.183 29.6846 116.489" stroke="#1E5546" stroke-width="3" stroke-miterlimit="10" stroke-linecap="round" stroke-linejoin="round"></path><path d="M55.2571 105.577C55.2571 105.577 54.7269 111.183 55.2571 116.489" stroke="#1E5546" stroke-width="3" stroke-miterlimit="10" stroke-linecap="round" stroke-linejoin="round"></path><path d="M64.9482 69.1651C62.3153 66.2817 55.5342 65.1101 50.8242 70.2654" stroke="#1E5546" stroke-width="3" stroke-miterlimit="10" stroke-linecap="round" stroke-linejoin="round"></path><path d="M56.5801 70.0671C56.5801 70.8135 57.1594 71.4188 57.8741 71.4188C58.5888 71.4188 59.1682 70.8135 59.1682 70.0671C59.1682 69.3206 58.5888 68.7153 57.8741 68.7153C57.1594 68.7153 56.5801 69.3206 56.5801 70.0671Z" fill="#1E5546" stroke="#1E5546" stroke-width="3" stroke-miterlimit="10" stroke-linecap="round" stroke-linejoin="round"></path><path d="M19.9893 69.1651C22.6221 66.2817 29.4032 65.1101 34.1132 70.2654" stroke="#1E5546" stroke-width="3" stroke-miterlimit="10" stroke-linecap="round" stroke-linejoin="round"></path><path d="M28.3577 70.0671C28.3577 70.8135 27.7783 71.4188 27.0636 71.4188C26.3489 71.4188 25.7695 70.8135 25.7695 70.0671C25.7695 69.3206 26.3489 68.7153 27.0636 68.7153C27.7783 68.7153 28.3577 69.3206 28.3577 70.0671Z" fill="#1E5546" stroke="#1E5546" stroke-width="3" stroke-miterlimit="10" stroke-linecap="round" stroke-linejoin="round"></path><path d="M52.3828 59.9456C53.9701 59.5115 58.9445 59.0566 62.2163 59.9456" stroke="#1E5546" stroke-width="3" stroke-miterlimit="10" stroke-linecap="round" stroke-linejoin="round"></path><path d="M32.6724 59.9456C31.0848 59.5115 26.1107 59.0566 22.8389 59.9456" stroke="#1E5546" stroke-width="3" stroke-miterlimit="10" stroke-linecap="round" stroke-linejoin="round"></path><path d="M84.6777 83.4807C81.452 89.3132 77.6171 94.6992 73.1726 99.6396C71.7921 101.105 68.2443 102.624 66.1312 102.003C64.6334 101.514 63.3998 100.653 62.4303 99.4211C61.1255 97.6661 61.4017 93.8055 62.3616 91.9732C65.6524 86.023 69.565 80.5278 74.0993 75.488C75.5125 73.9876 79.0391 72.5063 81.0926 73.2102C82.5509 73.7556 83.7447 74.6719 84.6744 75.9596C85.9207 77.7978 85.6145 81.6905 84.6777 83.4807Z" stroke="#1E5546" stroke-width="3" stroke-miterlimit="10" stroke-linecap="round" stroke-linejoin="round"></path><path d="M64.0712 100.983L63.4894 101.8C62.4422 103.285 62.7708 105.349 64.2239 106.413L66.075 107.778C66.9053 108.376 67.9613 108.558 68.9402 108.256L88.1251 102.322" stroke="#1E5546" stroke-width="3" stroke-miterlimit="10" stroke-linecap="round" stroke-linejoin="round"></path><path d="M83.0791 74.2994L83.6494 73.4842C84.7079 71.9974 86.7438 71.6642 88.21 72.7375L90.0593 74.0915C90.8915 74.7007 91.3828 75.6615 91.408 76.6989L91.8912 97.0319" stroke="#1E5546" stroke-width="3" stroke-miterlimit="10" stroke-linecap="round" stroke-linejoin="round"></path><path d="M109.199 107.287L98.6423 99.5783L98.6428 99.5647L96.2642 97.8354C95.4281 97.2203 94.4573 96.8865 93.5004 96.8411C91.8291 96.7618 90.1459 97.5174 89.0913 99.0014C88.3829 100.009 88.0724 101.172 88.1273 102.326C88.2055 103.85 88.948 105.323 90.2549 106.276L92.6201 108.005L92.6196 108.018L103.512 115.989" stroke="#1E5546" stroke-width="3" stroke-miterlimit="10" stroke-linecap="round" stroke-linejoin="round"></path><path d="M98.6426 99.5781L92.6201 108.004" stroke="#1E5546" stroke-width="3" stroke-miterlimit="10" stroke-linecap="round" stroke-linejoin="round"></path><path d="M67.1299 93.178L70.6861 87.6025" stroke="#1E5546" stroke-width="3" stroke-miterlimit="10" stroke-linecap="round" stroke-linejoin="round"></path><path d="M74.6309 82.324L76.5598 80.0176" stroke="#1E5546" stroke-width="3" stroke-miterlimit="10" stroke-linecap="round" stroke-linejoin="round"></path></svg>