<svg xmlns="http://www.w3.org/2000/svg" width="108" height="112" viewBox="0 0 108 112" fill="none"><path d="M3.61426 63.9053C3.61426 63.9053 3.62941 63.9951 3.61426 64.04C3.76579 67.7995 4.79674 70.376 6.11587 72.0385C7.22259 73.3866 8.75386 74.2402 10.3457 74.0905C10.8612 74.0456 11.3161 73.9259 11.6497 73.6861C11.6649 73.6861 11.68 73.6861 11.6952 73.6711" stroke="#1E5546" stroke-width="3" stroke-miterlimit="10" stroke-linecap="round" stroke-linejoin="round"></path><path d="M79.6778 63.9351C79.6778 63.95 79.6778 63.95 79.6778 63.965C79.5414 67.7696 78.5105 70.3758 77.161 72.0384C76.0695 73.3865 74.523 74.2401 72.9312 74.0904C72.4157 74.0455 71.7638 73.7757 71.415 73.5362" stroke="#1E5546" stroke-width="3" stroke-miterlimit="10" stroke-linecap="round" stroke-linejoin="round"></path><path d="M38.6221 79.8315C40.5457 80.8755 42.4694 80.8755 44.3931 79.8315" stroke="#1E5546" stroke-width="3" stroke-miterlimit="10" stroke-linecap="round" stroke-linejoin="round"></path><path d="M35.0752 90.4292C39.3633 92.9059 43.6511 92.9059 47.9392 90.4292" stroke="#1E5546" stroke-width="3" stroke-miterlimit="10" stroke-linecap="round" stroke-linejoin="round"></path><path d="M73.7497 55.5322V56.6406C73.6436 62.1077 73.0069 67.2004 71.8545 71.8885C71.7787 72.2181 71.6878 72.5475 71.5969 72.8771C71.5363 73.1019 71.4757 73.3265 71.415 73.5361" stroke="#1E5546" stroke-width="3" stroke-miterlimit="10" stroke-linecap="round" stroke-linejoin="round"></path><path d="M9.25494 52.9858V54.5885C9.22463 60.8643 9.86134 66.6312 11.1653 71.8885C11.2411 72.2181 11.332 72.5474 11.4229 72.877C13.1057 79.3028 15.7591 84.9796 19.2914 89.9225C24.2947 96.9175 34.6496 104.871 41.5023 104.871C45.0955 104.871 49.6439 102.684 53.8889 99.6135" stroke="#1E5546" stroke-width="3" stroke-miterlimit="10" stroke-linecap="round" stroke-linejoin="round"></path><path d="M54.5489 32.3994C57.5399 47.2469 63.0511 48.7329 71.6287 53.1865L71.6284 53.2028C75.8402 55.3851 78.294 59.9732 79.67 63.9378C79.6697 63.9698 79.6846 64.0021 79.6998 64.0344C84.6445 46.1304 77.4326 31.8621 68.2551 23.2448C57.9076 13.5286 33.5635 9.66645 17.4195 21.8328C5.45771 30.8475 -1.2908 46.2814 3.61247 64.0344C3.62762 64.0021 3.61247 63.9057 3.61247 63.9057C5.21286 57.8103 6.22414 53.3675 11.6277 51.1111C26.4295 44.9304 44.3925 52.0375 51.8829 38.762C52.9817 36.8147 53.8608 34.7414 54.5018 32.5801C54.5178 32.5142 54.5489 32.4648 54.5489 32.3994Z" stroke="#1E5546" stroke-width="3" stroke-miterlimit="10" stroke-linecap="round" stroke-linejoin="round"></path><path d="M22.6505 18.4472C21.6719 16.9357 21.6724 15.7934 21.6719 15.084C21.6671 7.70458 30.7848 2 41.5245 2C52.2641 2 61.8144 7.60924 61.3725 15.084C61.347 15.5177 61.0958 16.6441 60.6837 17.7094" stroke="#1E5546" stroke-width="3" stroke-miterlimit="10" stroke-linecap="round" stroke-linejoin="round"></path><path d="M29.1279 99.7065C29.1279 99.7065 29.6413 104.994 29.1279 110" stroke="#1E5546" stroke-width="3" stroke-miterlimit="10" stroke-linecap="round" stroke-linejoin="round"></path><path d="M53.8883 99.6084C53.8883 99.6084 53.375 104.994 53.8883 110" stroke="#1E5546" stroke-width="3" stroke-miterlimit="10" stroke-linecap="round" stroke-linejoin="round"></path><path d="M63.2728 65.3581C60.7236 62.6379 54.1577 61.5327 49.5977 66.3961" stroke="#1E5546" stroke-width="3" stroke-miterlimit="10" stroke-linecap="round" stroke-linejoin="round"></path><path d="M55.1709 66.2092C55.1709 66.9134 55.7318 67.4843 56.4238 67.4843C57.1158 67.4843 57.6768 66.9134 57.6768 66.2092C57.6768 65.5051 57.1158 64.9341 56.4238 64.9341C55.7318 64.9341 55.1709 65.5051 55.1709 66.2092Z" fill="#1E5546" stroke="#1E5546" stroke-width="3" stroke-miterlimit="10" stroke-linecap="round" stroke-linejoin="round"></path><path d="M19.7412 65.3581C22.2904 62.6379 28.8563 61.5327 33.4163 66.3961" stroke="#1E5546" stroke-width="3" stroke-miterlimit="10" stroke-linecap="round" stroke-linejoin="round"></path><path d="M27.8438 66.2092C27.8438 66.9134 27.2828 67.4843 26.5908 67.4843C25.8988 67.4843 25.3379 66.9134 25.3379 66.2092C25.3379 65.5051 25.8988 64.9341 26.5908 64.9341C27.2828 64.9341 27.8438 65.5051 27.8438 66.2092Z" fill="#1E5546" stroke="#1E5546" stroke-width="3" stroke-miterlimit="10" stroke-linecap="round" stroke-linejoin="round"></path><path d="M51.1074 56.6613C52.6445 56.2519 57.4609 55.8227 60.6287 56.6613" stroke="#1E5546" stroke-width="3" stroke-miterlimit="10" stroke-linecap="round" stroke-linejoin="round"></path><path d="M32.0213 56.6613C30.4842 56.2519 25.6678 55.8227 22.5 56.6613" stroke="#1E5546" stroke-width="3" stroke-miterlimit="10" stroke-linecap="round" stroke-linejoin="round"></path><path d="M76.2634 92.8508C75.3202 91.7945 74.8662 90.222 74.3305 89.3217C74.3305 89.3217 74.3305 89.3096 74.3188 89.2978C71.198 84.1721 62.604 74.3647 60.3217 75.9012C57.0263 78.1218 56.2112 88.0014 58.1325 93.2952C59.8094 97.9287 62.2595 100.875 63.0163 102.256C64.1685 104.517 67.0979 107.759 67.582 110" stroke="#1E5546" stroke-width="3" stroke-miterlimit="10" stroke-linecap="round" stroke-linejoin="round"></path><path d="M74.3301 89.3216C74.3301 89.3216 74.3301 89.3095 74.3184 89.2977C74.132 88.7816 71.4653 81.051 76.6475 80.0186C77.7071 80.2825 78.0447 83.7278 79.8964 86.0927C80.7231 87.3891 80.7931 89.9819 81.5151 92.695C81.8134 93.8327 82.403 96.7882 82.5357 99.2755C82.7135 102.614 82.2826 105.747 81.2641 108.59" stroke="#1E5546" stroke-width="3" stroke-miterlimit="10" stroke-linecap="round" stroke-linejoin="round"></path><path d="M93.1722 65.8251C93.161 65.7847 93.1387 65.7403 93.1126 65.7072C91.7762 63.4488 88.8285 62.684 86.5385 64.0153C86.1358 64.2506 85.7814 64.5266 85.4717 64.8542C84.7443 65.6085 84.3036 66.5805 84.1797 67.6077" stroke="#1E5546" stroke-width="3" stroke-miterlimit="10" stroke-linecap="round" stroke-linejoin="round"></path><path d="M91.416 92.1766C92.322 92.1577 93.2161 92.0288 94.0779 91.7814C97.3787 90.8587 100.142 88.3463 101.242 84.8597C101.751 83.2276 101.842 81.5496 101.548 79.9683" stroke="#1E5546" stroke-width="3" stroke-miterlimit="10" stroke-linecap="round" stroke-linejoin="round"></path><path d="M91.3076 68.3748C92.6305 66.5883 94.699 65.3557 97.1033 65.1561C101.5 64.791 105.364 68.0165 105.733 72.3606C106.076 76.384 103.295 79.9573 99.3886 80.745" stroke="#1E5546" stroke-width="3" stroke-miterlimit="10" stroke-linecap="round" stroke-linejoin="round"></path><path d="M104.685 101.486C105.963 100.223 105.963 98.1752 104.685 96.9119C103.406 95.6487 101.333 95.6487 100.054 96.912C98.7758 98.1752 98.7758 100.223 100.054 101.486C101.333 102.75 103.406 102.75 104.685 101.486Z" stroke="#1E5546" stroke-width="3" stroke-miterlimit="10" stroke-linecap="round" stroke-linejoin="round"></path></svg>