<svg xmlns="http://www.w3.org/2000/svg" width="84" height="115" viewBox="0 0 84 115" fill="none"><path d="M38.9219 81.9009C40.8694 82.9707 42.8169 82.9707 44.7644 81.9009" stroke="#1E5546" stroke-width="3" stroke-miterlimit="10" stroke-linecap="round" stroke-linejoin="round"></path><path d="M3.48807 63.7075C3.47273 64.3061 3.47273 64.8893 3.48807 65.4419C3.48807 65.4419 3.50341 65.5339 3.48807 65.5646C3.64148 69.4174 4.6852 72.0727 6.03603 73.761C7.14112 75.1579 8.69138 76.0172 10.303 75.8792C10.8249 75.8332 11.2854 75.6951 11.6231 75.4647" stroke="#1E5546" stroke-width="3" stroke-miterlimit="10" stroke-linecap="round" stroke-linejoin="round"></path><path d="M72.3066 75.4377C72.6643 75.6864 73.1378 75.8309 73.6688 75.8783C75.2809 76.0217 76.8387 75.1562 77.9457 73.765C79.5059 71.8043 80.6532 68.5948 80.4866 63.7031" stroke="#1E5546" stroke-width="3" stroke-miterlimit="10" stroke-linecap="round" stroke-linejoin="round"></path><path d="M35.3398 94.1528C39.6811 96.6908 44.0221 96.6908 48.3633 94.1528" stroke="#1E5546" stroke-width="3" stroke-miterlimit="10" stroke-linecap="round" stroke-linejoin="round"></path><path d="M9.19546 54.2451L9.19655 55.8958C9.1629 62.3221 9.81825 68.2238 11.1292 73.6185C11.2132 73.9568 11.2975 74.2948 11.3981 74.6331C13.0956 81.2115 15.7849 87.029 19.3647 92.1023C24.4235 99.2725 34.9111 107.424 41.8523 107.424C48.7768 107.424 59.2811 99.2725 64.3232 92.1023C67.9031 87.029 70.609 81.2115 72.3065 74.6331C72.4074 74.2948 72.4914 73.9568 72.5754 73.6185C73.7351 68.8156 74.3904 63.5902 74.4914 57.9926V56.8547" stroke="#1E5546" stroke-width="3" stroke-miterlimit="10" stroke-linecap="round" stroke-linejoin="round"></path><path d="M55.0545 33.1512C58.0826 48.3663 63.6622 49.8888 72.346 54.4527V54.4694C76.6101 56.7057 79.0942 61.4073 80.4873 65.47C80.487 65.5031 80.5021 65.5359 80.5174 65.569C85.5235 47.2219 78.2222 32.6005 68.9309 23.77C58.4548 13.8134 33.8093 9.85563 17.4651 22.3231C5.35507 31.5608 -1.47709 47.3767 3.48696 65.569C3.5023 65.5362 3.48696 65.4372 3.48696 65.4372C5.1072 59.1909 6.13102 54.6381 11.6016 52.3259C26.5869 45.9919 44.7725 53.2752 52.3558 39.6712C53.4682 37.6757 54.358 35.5511 55.0071 33.3364C55.0227 33.2688 55.0542 33.2185 55.0545 33.1512Z" stroke="#1E5546" stroke-width="3" stroke-miterlimit="10" stroke-linecap="round" stroke-linejoin="round"></path><path d="M22.7583 18.8542C21.7676 17.3053 21.7681 16.1348 21.7676 15.4078C21.7627 7.84576 30.9935 2 41.8663 2C52.7391 2 62.4077 7.74806 61.9604 15.4078C61.9346 15.8522 61.6802 17.0065 61.263 18.0979" stroke="#1E5546" stroke-width="3" stroke-miterlimit="10" stroke-linecap="round" stroke-linejoin="round"></path><path d="M29.3203 102.124C29.3203 102.124 29.84 107.543 29.3203 112.672" stroke="#1E5546" stroke-width="3" stroke-miterlimit="10" stroke-linecap="round" stroke-linejoin="round"></path><path d="M54.3833 102.124C54.3833 102.124 53.8636 107.543 54.3833 112.672" stroke="#1E5546" stroke-width="3" stroke-miterlimit="10" stroke-linecap="round" stroke-linejoin="round"></path><path d="M65.4208 66.9263C62.84 64.139 56.1928 63.0062 51.5762 67.9899" stroke="#1E5546" stroke-width="3" stroke-miterlimit="10" stroke-linecap="round" stroke-linejoin="round"></path><path d="M57.2188 67.7984C57.2188 68.52 57.7866 69.1051 58.4872 69.1051C59.1878 69.1051 59.7557 68.52 59.7557 67.7984C59.7557 67.0768 59.1878 66.4917 58.4872 66.4917C57.7866 66.4917 57.2188 67.0765 57.2188 67.7984Z" fill="#313131" stroke="#1E5546" stroke-width="3" stroke-miterlimit="10" stroke-linecap="round" stroke-linejoin="round"></path><path d="M18.2812 66.9263C20.862 64.139 27.509 63.0062 32.1259 67.9899" stroke="#1E5546" stroke-width="3" stroke-miterlimit="10" stroke-linecap="round" stroke-linejoin="round"></path><path d="M26.4842 67.7984C26.4842 68.52 25.9163 69.1051 25.2157 69.1051C24.5152 69.1051 23.9473 68.52 23.9473 67.7984C23.9473 67.0768 24.5152 66.4917 25.2157 66.4917C25.9163 66.4917 26.4842 67.0765 26.4842 67.7984Z" fill="#313131" stroke="#1E5546" stroke-width="3" stroke-miterlimit="10" stroke-linecap="round" stroke-linejoin="round"></path><path d="M53.1035 58.0145C54.6597 57.5949 59.5357 57.1552 62.7428 58.0145" stroke="#1E5546" stroke-width="3" stroke-miterlimit="10" stroke-linecap="round" stroke-linejoin="round"></path><path d="M30.7135 58.0145C29.1574 57.5949 24.2813 57.1552 21.0742 58.0145" stroke="#1E5546" stroke-width="3" stroke-miterlimit="10" stroke-linecap="round" stroke-linejoin="round"></path></svg>