<svg xmlns="http://www.w3.org/2000/svg" width="114" height="116" viewBox="0 0 114 116" fill="none"><path d="M3.31348 66.1729C3.31348 66.1729 3.329 66.2815 3.31348 66.3125C3.46868 70.2099 4.52458 72.8811 5.89116 74.6046C7.00915 76.0177 8.57748 76.8871 10.2079 76.7474C10.7359 76.6853 11.2017 76.5457 11.5587 76.3126" stroke="#1E5546" stroke-width="3" stroke-miterlimit="10" stroke-linecap="round" stroke-linejoin="round"></path><path d="M20.2021 58.94C20.2021 58.94 25.1634 57.3385 30.3239 58.0069" stroke="#1E5546" stroke-width="3" stroke-miterlimit="10" stroke-linecap="round" stroke-linejoin="round"></path><path d="M39.1729 82.6875C41.1431 83.7698 43.1133 83.7698 45.0835 82.6875" stroke="#1E5546" stroke-width="3" stroke-miterlimit="10" stroke-linecap="round" stroke-linejoin="round"></path><path d="M35.5391 93.6743C39.931 96.2419 44.3226 96.2419 48.7145 93.6743" stroke="#1E5546" stroke-width="3" stroke-miterlimit="10" stroke-linecap="round" stroke-linejoin="round"></path><path d="M9.08893 54.8521V56.529C9.05789 63.0196 9.72552 68.9981 11.0455 74.4484C11.1387 74.7901 11.2163 75.1315 11.3252 75.4732C13.0332 82.1348 15.7506 88.0199 19.3841 93.1598C24.493 100.411 35.1141 108.657 42.1327 108.657C49.1357 108.657 59.7569 100.411 64.8657 93.1598C66.9465 90.2096 68.7321 87.0109 70.1763 83.5635" stroke="#1E5546" stroke-width="3" stroke-miterlimit="10" stroke-linecap="round" stroke-linejoin="round"></path><path d="M72.9722 55.0855V55.0699C64.199 50.4425 58.5467 48.9052 55.4876 33.517C55.4876 33.5791 55.4566 33.6411 55.4411 33.7032C54.7735 35.9392 53.8728 38.0976 52.7548 40.1163C45.0841 53.8741 26.6833 46.4983 11.5279 52.9113C5.98451 55.2562 4.95964 59.8523 3.31343 66.1722C3.31343 66.1722 3.32895 66.2808 3.31343 66.3119C-1.70226 47.9111 5.20796 31.9018 17.4595 22.5539C33.9971 9.94507 58.9195 13.9514 69.5251 24.0291C75.3007 29.5223 80.3189 37.2247 82.15 46.6684" stroke="#1E5546" stroke-width="3" stroke-miterlimit="10" stroke-linecap="round" stroke-linejoin="round"></path><path d="M22.8128 19.051C21.8105 17.4841 21.8111 16.2999 21.8105 15.5642C21.8056 7.91392 31.1441 2 42.1437 2C53.1433 2 62.9247 7.81508 62.4722 15.5642C62.446 16.0137 62.1887 17.1816 61.7667 18.2859" stroke="#1E5546" stroke-width="3" stroke-miterlimit="10" stroke-linecap="round" stroke-linejoin="round"></path><path d="M29.4492 103.292C29.4492 103.292 29.975 108.774 29.4492 113.963" stroke="#1E5546" stroke-width="3" stroke-miterlimit="10" stroke-linecap="round" stroke-linejoin="round"></path><path d="M54.8079 103.292C54.8079 103.292 54.2821 108.774 54.8079 113.963" stroke="#1E5546" stroke-width="3" stroke-miterlimit="10" stroke-linecap="round" stroke-linejoin="round"></path><path d="M64.4192 67.6841C61.8083 64.8643 55.0835 63.7183 50.4131 68.7601" stroke="#1E5546" stroke-width="3" stroke-miterlimit="10" stroke-linecap="round" stroke-linejoin="round"></path><path d="M56.1211 68.5661C56.1211 69.296 56.6956 69.888 57.4043 69.888C58.1131 69.888 58.6876 69.296 58.6876 68.5661C58.6876 67.8361 58.1131 67.2441 57.4043 67.2441C56.6956 67.2441 56.1211 67.8361 56.1211 68.5661Z" fill="#1E5546" stroke="#1E5546" stroke-width="3" stroke-miterlimit="10" stroke-linecap="round" stroke-linejoin="round"></path><path d="M19.835 67.6841C22.4459 64.8643 29.1707 63.7183 33.8411 68.7601" stroke="#1E5546" stroke-width="3" stroke-miterlimit="10" stroke-linecap="round" stroke-linejoin="round"></path><path d="M64.0515 58.94C64.0515 58.94 59.0902 57.3385 53.9297 58.0069" stroke="#1E5546" stroke-width="3" stroke-miterlimit="10" stroke-linecap="round" stroke-linejoin="round"></path><path d="M28.1339 68.5661C28.1339 69.296 27.5594 69.888 26.8506 69.888C26.1419 69.888 25.5674 69.296 25.5674 68.5661C25.5674 67.8361 26.1419 67.2441 26.8506 67.2441C27.5591 67.2441 28.1339 67.8361 28.1339 68.5661Z" fill="#1E5546" stroke="#1E5546" stroke-width="3" stroke-miterlimit="10" stroke-linecap="round" stroke-linejoin="round"></path><path d="M91.0923 46.6694L82.8933 54.5732V54.5887L77.8314 59.4645L75.0051 62.1818L73.0795 64.0453C70.8435 66.2037 70.1446 69.2783 71.2629 71.4367C71.4491 71.7939 71.6822 72.1198 71.977 72.4305C72.2722 72.7253 72.5981 72.974 72.9398 73.1602C73.095 73.2533 73.266 73.3309 73.4367 73.4085C75.4399 74.2316 78.1418 73.6727 80.1915 71.7936C80.2536 71.7471 80.3312 71.685 80.3933 71.6229L98.4057 54.2626" stroke="#1E5546" stroke-width="3" stroke-miterlimit="10" stroke-linecap="round" stroke-linejoin="round"></path><path d="M97.3662 42.5392L105.742 34.456C106.533 33.6952 107.527 33.3535 108.521 33.3535C109.515 33.3846 110.493 33.7728 111.254 34.5491C112.745 36.1019 112.683 38.571 111.145 40.0459L102.77 48.1446" stroke="#1E5546" stroke-width="3" stroke-miterlimit="10" stroke-linecap="round" stroke-linejoin="round"></path><path d="M71.978 72.4258L67.4805 76.7621" stroke="#1E5546" stroke-width="3" stroke-miterlimit="10" stroke-linecap="round" stroke-linejoin="round"></path><path d="M102.763 48.1488L105.264 50.7426C105.918 51.4216 105.899 52.5029 105.22 53.1574L102.365 55.9094C101.686 56.5642 100.605 56.5443 99.9506 55.8653L89.0057 44.5133C88.3511 43.8343 88.3707 42.753 89.0498 42.0985L91.9041 39.3465C92.5832 38.6919 93.6644 38.7115 94.319 39.3906L97.3604 42.5453" stroke="#1E5546" stroke-width="3" stroke-miterlimit="10" stroke-linecap="round" stroke-linejoin="round"></path><path d="M82.6532 82.9196C84.7573 79.2778 90.1196 72.4043 90.1196 72.4043C90.1196 72.4043 95.4822 79.2781 97.5867 82.9196C100.446 87.868 100.989 91.4607 100.092 94.8552C99.393 97.5171 96.4812 102.773 90.1196 102.773C83.7589 102.773 80.8477 97.5171 80.1473 94.8552C79.2513 91.4604 79.7931 87.868 82.6532 82.9196Z" stroke="#1E5546" stroke-width="3" stroke-miterlimit="10" stroke-linecap="round" stroke-linejoin="round"></path><path d="M94.9404 91.2808H85.2959" stroke="#1E5546" stroke-width="3" stroke-miterlimit="10" stroke-linecap="round" stroke-linejoin="round"></path><path d="M90.1182 86.459V96.1034" stroke="#1E5546" stroke-width="3" stroke-miterlimit="10" stroke-linecap="round" stroke-linejoin="round"></path><path d="M75.0068 62.1821H88.8028" stroke="#1E5546" stroke-width="3" stroke-miterlimit="10" stroke-linecap="round" stroke-linejoin="round"></path></svg>