<svg xmlns="http://www.w3.org/2000/svg" width="115" height="115" viewBox="0 0 115 115" fill="none"><circle cx="57.5" cy="57.5" r="57.5" fill="#1E5546"></circle><path d="M64.7 56.25C64.7 57.7531 64.2777 59.2225 63.4866 60.4723C62.6954 61.7221 61.5709 62.6963 60.2553 63.2715C58.9397 63.8467 57.492 63.9972 56.0954 63.704C54.6987 63.4107 53.4158 62.6869 52.4088 61.624C51.4019 60.5611 50.7162 59.2069 50.4383 57.7327C50.1605 56.2584 50.3031 54.7303 50.8481 53.3416C51.393 51.9529 52.3159 50.7659 53.4999 49.9308C54.6839 49.0957 56.076 48.65 57.5 48.65C59.4077 48.6563 61.2356 49.459 62.5846 50.8829C63.9336 52.3068 64.6941 54.2363 64.7 56.25ZM80 45.8V66.7C80 70.2274 78.6725 73.6103 76.3095 76.1045C73.9466 78.5988 70.7417 80 67.4 80H47.6C44.2583 80 41.0534 78.5988 38.6905 76.1045C36.3275 73.6103 35 70.2274 35 66.7V45.8C35 42.2726 36.3275 38.8897 38.6905 36.3955C41.0534 33.9012 44.2583 32.5 47.6 32.5H67.4C70.7417 32.5 73.9466 33.9012 76.3095 36.3955C78.6725 38.8897 80 42.2726 80 45.8ZM68.3 56.25C68.3 53.9953 67.6666 51.7912 66.4799 49.9165C65.2932 48.0418 63.6064 46.5806 61.633 45.7178C59.6595 44.8549 57.488 44.6292 55.393 45.069C53.298 45.5089 51.3737 46.5947 49.8632 48.189C48.3528 49.7833 47.3242 51.8146 46.9075 54.026C46.4908 56.2374 46.7047 58.5295 47.5221 60.6126C48.3395 62.6957 49.7238 64.4761 51.4998 65.7288C53.2759 66.9814 55.364 67.65 57.5 67.65C60.3643 67.65 63.1114 66.4489 65.1368 64.311C67.1621 62.1731 68.3 59.2735 68.3 56.25ZM71.9 43.9C71.9 43.3363 71.7416 42.7853 71.445 42.3166C71.1483 41.8479 70.7266 41.4827 70.2332 41.2669C69.7399 41.0512 69.197 40.9948 68.6733 41.1048C68.1495 41.2147 67.6684 41.4862 67.2908 41.8847C66.9132 42.2833 66.6561 42.7911 66.5519 43.344C66.4477 43.8968 66.5012 44.4699 66.7055 44.9906C66.9099 45.5114 67.2559 45.9565 67.7 46.2697C68.144 46.5829 68.666 46.75 69.2 46.75C69.9161 46.75 70.6028 46.4497 71.1092 45.9153C71.6155 45.3808 71.9 44.6559 71.9 43.9Z" fill="white"></path></svg>