<svg xmlns="http://www.w3.org/2000/svg" width="52" height="69" viewBox="0 0 52 69" fill="none"><path d="M26 65.75C26 65.75 49.4375 47 49.4375 26.6875C49.4375 13.7437 38.9438 3.25 26 3.25C13.0562 3.25 2.5625 13.7437 2.5625 26.6875C2.5625 47 26 65.75 26 65.75Z" stroke="#1E5546" stroke-width="5" stroke-linejoin="round"></path><path d="M26 36.0625C27.2311 36.0625 28.4502 35.82 29.5877 35.3489C30.7251 34.8777 31.7586 34.1872 32.6291 33.3166C33.4997 32.4461 34.1902 31.4126 34.6614 30.2752C35.1325 29.1377 35.375 27.9186 35.375 26.6875C35.375 25.4564 35.1325 24.2373 34.6614 23.0998C34.1902 21.9624 33.4997 20.9289 32.6291 20.0584C31.7586 19.1878 30.7251 18.4973 29.5877 18.0261C28.4502 17.555 27.2311 17.3125 26 17.3125C23.5136 17.3125 21.129 18.3002 19.3709 20.0584C17.6127 21.8165 16.625 24.2011 16.625 26.6875C16.625 29.1739 17.6127 31.5585 19.3709 33.3166C21.129 35.0748 23.5136 36.0625 26 36.0625V36.0625Z" stroke="#1E5546" stroke-width="5" stroke-linejoin="round"></path></svg>