<svg xmlns="http://www.w3.org/2000/svg" width="75" height="75" viewBox="0 0 75 75" fill="none"><path d="M19.0874 32.1186L17.9255 33.2805L18.6706 34.745C23.3896 44.019 30.987 51.5807 40.2494 56.3265L41.7161 57.078L42.8814 55.9126L49.7564 49.0376C49.9911 48.8029 50.3361 48.7343 50.6098 48.8281L50.6218 48.8322L50.6339 48.8362C54.3624 50.0679 58.3833 50.7317 62.5 50.7317C62.969 50.7317 63.3621 51.1248 63.3621 51.5938V62.5C63.3621 62.969 62.969 63.3621 62.5 63.3621C34.406 63.3621 11.6379 40.594 11.6379 12.5C11.6379 12.031 12.031 11.6379 12.5 11.6379H23.4375C23.9065 11.6379 24.2996 12.031 24.2996 12.5C24.2996 16.6415 24.9612 20.6241 26.1883 24.3458C26.2855 24.6674 26.2123 24.9937 25.9624 25.2436L19.0874 32.1186Z" stroke="#1E5546" stroke-width="4.52586"></path></svg>